<svg width="128" height="13" viewBox="0 0 128 13" fill="none" xmlns="http://www.w3.org/2000/svg">
<path opacity="0.8" d="M0.05 3.28H1.24V4.26C1.38 4.05467 1.562 3.868 1.786 3.7C1.97267 3.56 2.21067 3.434 2.5 3.322C2.78933 3.20067 3.13933 3.14 3.55 3.14C3.98867 3.14 4.39933 3.22867 4.782 3.406C5.174 3.574 5.51467 3.81667 5.804 4.134C6.10267 4.442 6.336 4.81067 6.504 5.24C6.68133 5.66933 6.77 6.136 6.77 6.64C6.77 7.144 6.68133 7.61067 6.504 8.04C6.336 8.46933 6.10267 8.84267 5.804 9.16C5.51467 9.468 5.174 9.71067 4.782 9.888C4.39933 10.056 3.98867 10.14 3.55 10.14C3.13933 10.14 2.78933 10.084 2.5 9.972C2.21067 9.85067 1.97267 9.72 1.786 9.58C1.562 9.412 1.38 9.22533 1.24 9.02V12.94H0.05V3.28ZM3.41 9.02C3.70867 9.02 3.98867 8.964 4.25 8.852C4.51133 8.73067 4.74 8.56733 4.936 8.362C5.132 8.14733 5.286 7.89533 5.398 7.606C5.51933 7.31667 5.58 6.99467 5.58 6.64C5.58 6.29467 5.51933 5.97733 5.398 5.688C5.286 5.38933 5.132 5.13733 4.936 4.932C4.74 4.71733 4.51133 4.554 4.25 4.442C3.98867 4.32067 3.70867 4.26 3.41 4.26C3.11133 4.26 2.83133 4.32067 2.57 4.442C2.30867 4.554 2.08 4.71733 1.884 4.932C1.688 5.13733 1.52933 5.38933 1.408 5.688C1.296 5.97733 1.24 6.29467 1.24 6.64C1.24 6.99467 1.296 7.31667 1.408 7.606C1.52933 7.89533 1.688 8.14733 1.884 8.362C2.08 8.56733 2.30867 8.73067 2.57 8.852C2.83133 8.964 3.11133 9.02 3.41 9.02ZM11.6645 9.02C11.9819 9.02 12.2759 8.964 12.5465 8.852C12.8172 8.73067 13.0505 8.56733 13.2465 8.362C13.4519 8.14733 13.6105 7.89533 13.7225 7.606C13.8439 7.31667 13.9045 6.99467 13.9045 6.64C13.9045 6.29467 13.8439 5.97733 13.7225 5.688C13.6105 5.38933 13.4519 5.13733 13.2465 4.932C13.0505 4.71733 12.8172 4.554 12.5465 4.442C12.2759 4.32067 11.9819 4.26 11.6645 4.26C11.3472 4.26 11.0532 4.32067 10.7825 4.442C10.5119 4.554 10.2739 4.71733 10.0685 4.932C9.87253 5.13733 9.71386 5.38933 9.59253 5.688C9.48053 5.97733 9.42453 6.29467 9.42453 6.64C9.42453 6.99467 9.48053 7.31667 9.59253 7.606C9.71386 7.89533 9.87253 8.14733 10.0685 8.362C10.2739 8.56733 10.5119 8.73067 10.7825 8.852C11.0532 8.964 11.3472 9.02 11.6645 9.02ZM11.6645 10.14C11.1885 10.14 10.7405 10.0513 10.3205 9.874C9.90986 9.68733 9.55053 9.44 9.24253 9.132C8.93453 8.81467 8.6872 8.446 8.50053 8.026C8.3232 7.59667 8.23453 7.13467 8.23453 6.64C8.23453 6.15467 8.3232 5.69733 8.50053 5.268C8.6872 4.83867 8.93453 4.47 9.24253 4.162C9.55053 3.84467 9.90986 3.59733 10.3205 3.42C10.7405 3.23333 11.1885 3.14 11.6645 3.14C12.1405 3.14 12.5839 3.23333 12.9945 3.42C13.4145 3.59733 13.7785 3.84467 14.0865 4.162C14.3945 4.47 14.6372 4.83867 14.8145 5.268C15.0012 5.69733 15.0945 6.15467 15.0945 6.64C15.0945 7.13467 15.0012 7.59667 14.8145 8.026C14.6372 8.446 14.3945 8.81467 14.0865 9.132C13.7785 9.44 13.4145 9.68733 12.9945 9.874C12.5839 10.0513 12.1405 10.14 11.6645 10.14ZM16.1456 3.28H17.4056L19.0156 8.18L20.6256 3.28H21.7456L23.3556 8.18L24.9656 3.28H26.2256L23.9156 10H22.7956L21.1856 5.17L19.5756 10H18.4556L16.1456 3.28ZM33.5756 8.81C33.389 9.062 33.1603 9.286 32.8896 9.482C32.6563 9.65 32.3623 9.804 32.0076 9.944C31.6623 10.0747 31.2516 10.14 30.7756 10.14C30.281 10.14 29.819 10.0513 29.3896 9.874C28.9696 9.68733 28.601 9.44 28.2836 9.132C27.9756 8.81467 27.7283 8.446 27.5416 8.026C27.3643 7.59667 27.2756 7.13467 27.2756 6.64C27.2756 6.15467 27.3643 5.69733 27.5416 5.268C27.719 4.83867 27.9616 4.47 28.2696 4.162C28.5776 3.84467 28.9323 3.59733 29.3336 3.42C29.7443 3.23333 30.1783 3.14 30.6356 3.14C31.1116 3.14 31.5503 3.224 31.9516 3.392C32.353 3.55067 32.6983 3.77933 32.9876 4.078C33.2863 4.36733 33.515 4.71267 33.6736 5.114C33.8416 5.51533 33.9256 5.954 33.9256 6.43C33.9256 6.52333 33.921 6.60733 33.9116 6.682C33.9023 6.75667 33.893 6.822 33.8836 6.878C33.8743 6.94333 33.865 7.004 33.8556 7.06H28.5356C28.573 7.32133 28.6523 7.57333 28.7736 7.816C28.9043 8.04933 29.0676 8.25467 29.2636 8.432C29.4596 8.60933 29.6836 8.754 29.9356 8.866C30.197 8.96867 30.477 9.02 30.7756 9.02C31.1023 9.02 31.3916 8.97333 31.6436 8.88C31.905 8.77733 32.1196 8.66067 32.2876 8.53C32.4836 8.39 32.6563 8.22667 32.8056 8.04L33.5756 8.81ZM32.7356 6.01C32.6796 5.76733 32.591 5.53867 32.4696 5.324C32.3576 5.10933 32.2083 4.92267 32.0216 4.764C31.8443 4.60533 31.639 4.484 31.4056 4.4C31.1723 4.30667 30.9156 4.26 30.6356 4.26C30.3556 4.26 30.099 4.30667 29.8656 4.4C29.6323 4.484 29.4223 4.60533 29.2356 4.764C29.0583 4.92267 28.909 5.10933 28.7876 5.324C28.6756 5.53867 28.5916 5.76733 28.5356 6.01H32.7356ZM35.8216 3.28H37.0116V4.19C37.1516 4.00333 37.329 3.83067 37.5436 3.672C37.7303 3.54133 37.9543 3.42 38.2156 3.308C38.4863 3.196 38.8083 3.14 39.1816 3.14H39.4616V4.4C39.415 4.39067 39.3683 4.38133 39.3216 4.372C39.275 4.36267 39.2236 4.35333 39.1676 4.344C39.1116 4.33467 39.0463 4.33 38.9716 4.33C38.6916 4.33 38.4303 4.38133 38.1876 4.484C37.9543 4.58667 37.749 4.73133 37.5716 4.918C37.3943 5.09533 37.2543 5.31467 37.1516 5.576C37.0583 5.828 37.0116 6.11267 37.0116 6.43V10H35.8216V3.28ZM46.7515 8.81C46.5648 9.062 46.3362 9.286 46.0655 9.482C45.8322 9.65 45.5382 9.804 45.1835 9.944C44.8382 10.0747 44.4275 10.14 43.9515 10.14C43.4568 10.14 42.9948 10.0513 42.5655 9.874C42.1455 9.68733 41.7768 9.44 41.4595 9.132C41.1515 8.81467 40.9042 8.446 40.7175 8.026C40.5402 7.59667 40.4515 7.13467 40.4515 6.64C40.4515 6.15467 40.5402 5.69733 40.7175 5.268C40.8948 4.83867 41.1375 4.47 41.4455 4.162C41.7535 3.84467 42.1082 3.59733 42.5095 3.42C42.9202 3.23333 43.3542 3.14 43.8115 3.14C44.2875 3.14 44.7262 3.224 45.1275 3.392C45.5288 3.55067 45.8742 3.77933 46.1635 4.078C46.4622 4.36733 46.6908 4.71267 46.8495 5.114C47.0175 5.51533 47.1015 5.954 47.1015 6.43C47.1015 6.52333 47.0968 6.60733 47.0875 6.682C47.0782 6.75667 47.0688 6.822 47.0595 6.878C47.0502 6.94333 47.0408 7.004 47.0315 7.06H41.7115C41.7488 7.32133 41.8282 7.57333 41.9495 7.816C42.0802 8.04933 42.2435 8.25467 42.4395 8.432C42.6355 8.60933 42.8595 8.754 43.1115 8.866C43.3728 8.96867 43.6528 9.02 43.9515 9.02C44.2782 9.02 44.5675 8.97333 44.8195 8.88C45.0808 8.77733 45.2955 8.66067 45.4635 8.53C45.6595 8.39 45.8322 8.22667 45.9815 8.04L46.7515 8.81ZM45.9115 6.01C45.8555 5.76733 45.7668 5.53867 45.6455 5.324C45.5335 5.10933 45.3842 4.92267 45.1975 4.764C45.0202 4.60533 44.8148 4.484 44.5815 4.4C44.3482 4.30667 44.0915 4.26 43.8115 4.26C43.5315 4.26 43.2748 4.30667 43.0415 4.4C42.8082 4.484 42.5982 4.60533 42.4115 4.764C42.2342 4.92267 42.0848 5.10933 41.9635 5.324C41.8515 5.53867 41.7675 5.76733 41.7115 6.01H45.9115ZM54.1075 9.02C53.9582 9.22533 53.7715 9.412 53.5475 9.58C53.3608 9.72 53.1182 9.85067 52.8195 9.972C52.5302 10.084 52.1895 10.14 51.7975 10.14C51.3588 10.14 50.9435 10.056 50.5515 9.888C50.1688 9.71067 49.8282 9.468 49.5295 9.16C49.2402 8.84267 49.0068 8.46933 48.8295 8.04C48.6615 7.61067 48.5775 7.144 48.5775 6.64C48.5775 6.136 48.6615 5.66933 48.8295 5.24C49.0068 4.81067 49.2402 4.442 49.5295 4.134C49.8282 3.81667 50.1688 3.574 50.5515 3.406C50.9435 3.22867 51.3588 3.14 51.7975 3.14C52.1988 3.14 52.5442 3.20067 52.8335 3.322C53.1322 3.434 53.3748 3.56 53.5615 3.7C53.7855 3.868 53.9675 4.05467 54.1075 4.26V0.199999H55.2975V10H54.1075V9.02ZM51.9375 9.02C52.2362 9.02 52.5162 8.964 52.7775 8.852C53.0388 8.73067 53.2675 8.56733 53.4635 8.362C53.6595 8.14733 53.8135 7.89533 53.9255 7.606C54.0468 7.31667 54.1075 6.99467 54.1075 6.64C54.1075 6.29467 54.0468 5.97733 53.9255 5.688C53.8135 5.38933 53.6595 5.13733 53.4635 4.932C53.2675 4.71733 53.0388 4.554 52.7775 4.442C52.5162 4.32067 52.2362 4.26 51.9375 4.26C51.6388 4.26 51.3588 4.32067 51.0975 4.442C50.8362 4.554 50.6075 4.71733 50.4115 4.932C50.2155 5.13733 50.0568 5.38933 49.9355 5.688C49.8235 5.97733 49.7675 6.29467 49.7675 6.64C49.7675 6.99467 49.8235 7.31667 49.9355 7.606C50.0568 7.89533 50.2155 8.14733 50.4115 8.362C50.6075 8.56733 50.8362 8.73067 51.0975 8.852C51.3588 8.964 51.6388 9.02 51.9375 9.02ZM60.9035 0.199999H62.0935V4.26C62.2335 4.05467 62.4155 3.868 62.6395 3.7C62.8262 3.56 63.0642 3.434 63.3535 3.322C63.6428 3.20067 63.9928 3.14 64.4035 3.14C64.8422 3.14 65.2528 3.22867 65.6355 3.406C66.0275 3.574 66.3682 3.81667 66.6575 4.134C66.9562 4.442 67.1895 4.81067 67.3575 5.24C67.5348 5.66933 67.6235 6.136 67.6235 6.64C67.6235 7.144 67.5348 7.61067 67.3575 8.04C67.1895 8.46933 66.9562 8.84267 66.6575 9.16C66.3682 9.468 66.0275 9.71067 65.6355 9.888C65.2528 10.056 64.8422 10.14 64.4035 10.14C64.0022 10.14 63.6568 10.084 63.3675 9.972C63.0782 9.85067 62.8402 9.72 62.6535 9.58C62.4295 9.412 62.2428 9.22533 62.0935 9.02V10H60.9035V0.199999ZM64.2635 9.02C64.5622 9.02 64.8422 8.964 65.1035 8.852C65.3648 8.73067 65.5935 8.56733 65.7895 8.362C65.9855 8.14733 66.1395 7.89533 66.2515 7.606C66.3728 7.31667 66.4335 6.99467 66.4335 6.64C66.4335 6.29467 66.3728 5.97733 66.2515 5.688C66.1395 5.38933 65.9855 5.13733 65.7895 4.932C65.5935 4.71733 65.3648 4.554 65.1035 4.442C64.8422 4.32067 64.5622 4.26 64.2635 4.26C63.9648 4.26 63.6848 4.32067 63.4235 4.442C63.1622 4.554 62.9335 4.71733 62.7375 4.932C62.5415 5.13733 62.3828 5.38933 62.2615 5.688C62.1495 5.97733 62.0935 6.29467 62.0935 6.64C62.0935 6.99467 62.1495 7.31667 62.2615 7.606C62.3828 7.89533 62.5415 8.14733 62.7375 8.362C62.9335 8.56733 63.1622 8.73067 63.4235 8.852C63.6848 8.964 63.9648 9.02 64.2635 9.02ZM69.0301 11.68C69.0954 11.708 69.1701 11.7313 69.2541 11.75C69.4127 11.7967 69.5947 11.82 69.8001 11.82C70.1174 11.82 70.3741 11.736 70.5701 11.568C70.7661 11.4 70.9294 11.1573 71.0601 10.84L71.4101 10L68.6801 3.28H69.9401L71.9701 8.46L74.0001 3.28H75.2601L72.2501 10.91C71.9701 11.61 71.6574 12.1233 71.3121 12.45C70.9761 12.7767 70.5421 12.94 70.0101 12.94C69.7301 12.94 69.4967 12.9167 69.3101 12.87C69.2074 12.8513 69.1141 12.828 69.0301 12.8V11.68Z" fill="#7C7C7C"/>
<path d="M96.9228 1.16986H98.1627L102.089 10.8142H100.783L99.7482 8.19666H95.3525L94.3053 10.8142H92.9985L96.9228 1.16986ZM99.2648 7.02526L97.5424 2.75376L95.8231 7.02526H99.2648Z" fill="#424242"/>
<path d="M104.78 1.16986H106.02V10.8142H104.78V1.16986Z" fill="#424242"/>
<path d="M118.255 9.0234C117.961 9.39049 117.618 9.71504 117.235 9.98775C116.845 10.2535 116.427 10.4754 115.988 10.6495C115.437 10.8619 114.85 10.9647 114.26 10.9521C113.598 10.9581 112.941 10.8335 112.328 10.5853C111.714 10.3372 111.156 9.97038 110.684 9.50598C110.221 9.04557 109.853 8.49809 109.602 7.89506C109.351 7.29202 109.222 6.64532 109.222 5.99218C109.222 5.33904 109.351 4.69234 109.602 4.0893C109.853 3.48627 110.221 2.93879 110.684 2.47838C111.156 2.01398 111.714 1.64719 112.328 1.39903C112.941 1.15088 113.598 1.02624 114.26 1.03225C114.92 1.03225 115.495 1.13312 115.982 1.33486C116.415 1.50896 116.826 1.73235 117.208 2.00059C117.575 2.27533 117.904 2.59836 118.185 2.96096L117.359 3.78755C117.153 3.48897 116.901 3.22411 116.614 3.00237C116.316 2.77661 115.99 2.59131 115.644 2.45131C115.203 2.27645 114.732 2.19196 114.259 2.20285C113.746 2.19885 113.237 2.2974 112.763 2.49272C112.312 2.6755 111.902 2.94712 111.558 3.29144C111.213 3.63575 110.942 4.04575 110.759 4.49708C110.373 5.45655 110.373 6.52781 110.759 7.48729C110.942 7.93861 111.213 8.34861 111.558 8.69292C111.902 9.03724 112.312 9.30886 112.763 9.49164C113.238 9.68659 113.746 9.78513 114.259 9.78151C114.734 9.79257 115.206 9.71144 115.65 9.54261C116.003 9.40493 116.336 9.22183 116.642 8.99792C116.938 8.76797 117.202 8.50024 117.427 8.20159L118.255 9.0234Z" fill="#424242"/>
<path d="M121.258 8.67855C121.444 8.89046 121.659 9.07611 121.895 9.23041C122.142 9.38538 122.406 9.51225 122.681 9.60866C123.044 9.73218 123.427 9.79067 123.81 9.78147C124.5 9.78147 125.017 9.6299 125.361 9.32676C125.525 9.18862 125.657 9.01553 125.746 8.82007C125.836 8.62461 125.881 8.41169 125.877 8.19677C125.888 7.93747 125.81 7.68226 125.657 7.47291C125.498 7.2737 125.298 7.11079 125.071 6.99512C124.807 6.85832 124.53 6.74968 124.244 6.67101C123.937 6.58341 123.62 6.49157 123.294 6.39548C122.97 6.30194 122.652 6.19055 122.34 6.06182C122.042 5.93952 121.764 5.77484 121.513 5.57287C121.266 5.37017 121.066 5.11608 120.927 4.82831C120.783 4.49593 120.708 4.13755 120.706 3.77511C120.705 3.41266 120.778 3.05378 120.92 2.72043C121.064 2.39295 121.275 2.09958 121.541 1.8596C121.833 1.59833 122.171 1.39485 122.539 1.25996C122.967 1.10293 123.42 1.026 123.876 1.03301C124.309 1.0258 124.739 1.09094 125.15 1.22572C125.476 1.33229 125.788 1.47549 126.08 1.65255C126.36 1.82469 126.615 2.03331 126.839 2.27289L126.012 3.09948C125.849 2.92869 125.663 2.78034 125.461 2.65831C125.248 2.53473 125.024 2.43104 124.792 2.34854C124.498 2.24666 124.188 2.1976 123.876 2.20361C123.251 2.20361 122.773 2.35305 122.443 2.65194C122.287 2.78288 122.162 2.94637 122.077 3.13088C121.991 3.31539 121.947 3.51643 121.948 3.71982C121.937 3.9788 122.014 4.23379 122.167 4.44289C122.327 4.64184 122.526 4.8047 122.753 4.92068C123.017 5.05757 123.294 5.16595 123.58 5.24399C123.887 5.33159 124.204 5.42343 124.531 5.51952C124.853 5.61544 125.171 5.72814 125.482 5.85716C125.779 5.97933 126.057 6.14316 126.307 6.34372C126.554 6.54612 126.754 6.79995 126.893 7.08749C127.05 7.43548 127.126 7.815 127.113 8.19677C127.115 8.56498 127.038 8.92927 126.886 9.26456C126.733 9.59986 126.51 9.89819 126.232 10.139C125.925 10.3997 125.573 10.6007 125.193 10.7315C124.747 10.8848 124.279 10.9594 123.808 10.9521C123.303 10.9635 122.8 10.8889 122.32 10.7315C121.953 10.6073 121.602 10.4411 121.273 10.2362C120.957 10.0376 120.673 9.7913 120.432 9.50594L121.258 8.67855Z" fill="#424242"/>
<path fill-rule="evenodd" clip-rule="evenodd" d="M80.0003 11.8313C79.9983 11.8653 80.0072 11.899 80.0258 11.9276C80.0443 11.9561 80.0715 11.978 80.1034 11.9899C80.1353 12.0018 80.1702 12.0032 80.2029 11.9939C80.2357 11.9846 80.2646 11.965 80.2854 11.938L89.2194 1.7506C89.2386 1.7284 89.2515 1.70152 89.2569 1.67268C89.2623 1.64385 89.2599 1.6141 89.25 1.58648C89.2401 1.55886 89.2231 1.53436 89.2006 1.51548C89.1782 1.49661 89.1511 1.48404 89.1222 1.47905L81.0363 0.0146024C80.9096 -0.00883252 80.7792 -0.00401243 80.6546 0.0287194C80.5299 0.0614513 80.414 0.12129 80.3151 0.203964C80.2163 0.286637 80.1368 0.390109 80.0826 0.507002C80.0283 0.623895 80.0004 0.751328 80.0011 0.88021L80.0003 11.8313Z" fill="#418FDE"/>
<path fill-rule="evenodd" clip-rule="evenodd" d="M89.2654 4.10369V9.66684C89.2651 9.85659 89.1982 10.0402 89.0764 10.1857C88.9546 10.3313 88.7856 10.4294 88.5989 10.4632L82.7634 11.5255C82.7297 11.5338 82.6942 11.5309 82.6622 11.5172C82.6303 11.5034 82.6038 11.4796 82.5866 11.4494C82.5695 11.4192 82.5627 11.3842 82.5673 11.3498C82.5719 11.3153 82.5876 11.2834 82.6121 11.2587L88.9827 3.99619C89.0039 3.97019 89.0326 3.95152 89.065 3.94283C89.0974 3.93414 89.1316 3.93587 89.1629 3.94778C89.1942 3.95969 89.221 3.98116 89.2394 4.00915C89.2578 4.03714 89.2669 4.07023 89.2654 4.10369Z" fill="#77C5D5"/>
</svg>
