<svg width="145" height="140" viewBox="0 0 145 140" fill="none" xmlns="http://www.w3.org/2000/svg">
<path fill-rule="evenodd" clip-rule="evenodd" d="M111.786 25.2141C102.953 19.3898 92.3721 16 81 16C50.0721 16 25 41.0721 25 72C25 83.3721 28.3898 93.9526 34.2141 102.786C19.024 92.7704 9 75.5558 9 56C9 25.0721 34.0721 0 65 0C84.5558 0 101.77 10.024 111.786 25.2141Z" fill="url(#paint0_linear_8347_28)"/>
<mask id="mask0_8347_28" style="mask-type:alpha" maskUnits="userSpaceOnUse" x="25" y="16" width="112" height="112">
<circle cx="81" cy="72" r="56" fill="#E6F1FF"/>
</mask>
<g mask="url(#mask0_8347_28)">
<g filter="url(#filter0_f_8347_28)">
<circle cx="65" cy="56" r="56" fill="url(#paint1_linear_8347_28)"/>
</g>
</g>
<g filter="url(#filter1_di_8347_28)">
<circle cx="81" cy="72" r="56" fill="#B2E1BB" fill-opacity="0.2" shape-rendering="crispEdges"/>
</g>
<g filter="url(#filter2_dd_8347_28)">
<path fill-rule="evenodd" clip-rule="evenodd" d="M72.3621 89.4935C72.3615 89.4929 72.3626 89.494 72.3621 89.4935L60.8448 78.0324C59.7184 76.9115 59.7184 75.0941 60.8447 73.9733C61.9712 72.8523 63.7975 72.8523 64.9239 73.9732L74.4016 83.4047L97.0762 60.8406C98.2026 59.7198 100.029 59.7198 101.155 60.8407C102.282 61.9616 102.282 63.7789 101.155 64.8998L76.441 89.4935C75.3153 90.6138 73.4886 90.6127 72.3621 89.4935Z" fill="white"/>
</g>
<defs>
<filter id="filter0_f_8347_28" x="-11" y="-20" width="152" height="152" filterUnits="userSpaceOnUse" color-interpolation-filters="sRGB">
<feFlood flood-opacity="0" result="BackgroundImageFix"/>
<feBlend mode="normal" in="SourceGraphic" in2="BackgroundImageFix" result="shape"/>
<feGaussianBlur stdDeviation="10" result="effect1_foregroundBlur_8347_28"/>
</filter>
<filter id="filter1_di_8347_28" x="17" y="12" width="128" height="128" filterUnits="userSpaceOnUse" color-interpolation-filters="sRGB">
<feFlood flood-opacity="0" result="BackgroundImageFix"/>
<feColorMatrix in="SourceAlpha" type="matrix" values="0 0 0 0 0 0 0 0 0 0 0 0 0 0 0 0 0 0 127 0" result="hardAlpha"/>
<feOffset dy="4"/>
<feGaussianBlur stdDeviation="4"/>
<feComposite in2="hardAlpha" operator="out"/>
<feColorMatrix type="matrix" values="0 0 0 0 0.0196078 0 0 0 0 0.619608 0 0 0 0 0.141176 0 0 0 0.3 0"/>
<feBlend mode="multiply" in2="BackgroundImageFix" result="effect1_dropShadow_8347_28"/>
<feBlend mode="normal" in="SourceGraphic" in2="effect1_dropShadow_8347_28" result="shape"/>
<feColorMatrix in="SourceAlpha" type="matrix" values="0 0 0 0 0 0 0 0 0 0 0 0 0 0 0 0 0 0 127 0" result="hardAlpha"/>
<feOffset dx="1" dy="1"/>
<feGaussianBlur stdDeviation="0.5"/>
<feComposite in2="hardAlpha" operator="arithmetic" k2="-1" k3="1"/>
<feColorMatrix type="matrix" values="0 0 0 0 1 0 0 0 0 1 0 0 0 0 1 0 0 0 0.25 0"/>
<feBlend mode="normal" in2="shape" result="effect2_innerShadow_8347_28"/>
</filter>
<filter id="filter2_dd_8347_28" x="23" y="20" width="116" height="116" filterUnits="userSpaceOnUse" color-interpolation-filters="sRGB">
<feFlood flood-opacity="0" result="BackgroundImageFix"/>
<feColorMatrix in="SourceAlpha" type="matrix" values="0 0 0 0 0 0 0 0 0 0 0 0 0 0 0 0 0 0 127 0" result="hardAlpha"/>
<feOffset dy="4"/>
<feGaussianBlur stdDeviation="15"/>
<feColorMatrix type="matrix" values="0 0 0 0 0.698039 0 0 0 0 0.882353 0 0 0 0 0.733333 0 0 0 1 0"/>
<feBlend mode="multiply" in2="BackgroundImageFix" result="effect1_dropShadow_8347_28"/>
<feColorMatrix in="SourceAlpha" type="matrix" values="0 0 0 0 0 0 0 0 0 0 0 0 0 0 0 0 0 0 127 0" result="hardAlpha"/>
<feOffset dy="4"/>
<feGaussianBlur stdDeviation="8"/>
<feColorMatrix type="matrix" values="0 0 0 0 0.258824 0 0 0 0 0.258824 0 0 0 0 0.258824 0 0 0 0.2 0"/>
<feBlend mode="multiply" in2="effect1_dropShadow_8347_28" result="effect2_dropShadow_8347_28"/>
<feBlend mode="normal" in="SourceGraphic" in2="effect2_dropShadow_8347_28" result="shape"/>
</filter>
<linearGradient id="paint0_linear_8347_28" x1="-16.8649" y1="13.0321" x2="70.9235" y2="89.885" gradientUnits="userSpaceOnUse">
<stop stop-color="#059E24"/>
<stop offset="0.0001" stop-color="#059E24"/>
<stop offset="1" stop-color="#8CD29A"/>
</linearGradient>
<linearGradient id="paint1_linear_8347_28" x1="-19.1835" y1="14.2003" x2="76.4745" y2="97.9426" gradientUnits="userSpaceOnUse">
<stop stop-color="#059E24"/>
<stop offset="0.0001" stop-color="#059E24"/>
<stop offset="1" stop-color="#8CD29A"/>
</linearGradient>
</defs>
</svg>
