<svg width="32" height="32" viewBox="0 0 32 32" fill="none" xmlns="http://www.w3.org/2000/svg">
<path d="M16 2.66669C23.364 2.66669 29.3334 8.63735 29.3334 16C29.3334 23.3627 23.364 29.3334 16 29.3334C8.63602 29.3334 2.66669 23.3627 2.66669 16C2.66669 8.63735 8.63602 2.66669 16 2.66669ZM16.0024 20.005C15.267 20.005 14.6709 20.6011 14.6709 21.3365C14.6709 22.0719 15.267 22.6681 16.0024 22.6681C16.7378 22.6681 17.334 22.0719 17.334 21.3365C17.334 20.6011 16.7378 20.005 16.0024 20.005ZM15.9995 9.33335C15.3158 9.3336 14.7524 9.84852 14.6756 10.5117L14.6667 10.6672L14.6691 17.335L14.6781 17.4905C14.7554 18.1536 15.3191 18.6681 16.0029 18.6679C16.6867 18.6676 17.2501 18.1527 17.3268 17.4895L17.3358 17.334L17.3334 10.6662L17.3243 10.5107C17.2471 9.84763 16.6833 9.33311 15.9995 9.33335Z" fill="#E15E69"/>
</svg>
