<svg width="17" height="20" viewBox="0 0 17 20" fill="none" xmlns="http://www.w3.org/2000/svg">
<path d="M13.7543 11.9999C14.9963 11.9999 16.0032 13.0068 16.0032 14.2488V14.8242C16.0032 15.7185 15.6836 16.5833 15.1021 17.2627C13.5327 19.0962 11.1455 20.0011 8.00012 20.0011C4.85426 20.0011 2.46825 19.0959 0.901942 17.2617C0.322181 16.5827 0.00366211 15.7193 0.00366211 14.8265V14.2488C0.00366211 13.0068 1.01052 11.9999 2.25254 11.9999H13.7543ZM13.7543 13.4999H2.25254C1.83895 13.4999 1.50366 13.8352 1.50366 14.2488V14.8265C1.50366 15.3621 1.69477 15.8802 2.04263 16.2876C3.29594 17.7553 5.26182 18.5011 8.00012 18.5011C10.7384 18.5011 12.706 17.7552 13.9625 16.2873C14.3114 15.8797 14.5032 15.3608 14.5032 14.8242V14.2488C14.5032 13.8352 14.1679 13.4999 13.7543 13.4999ZM8.00012 0.00462532C10.7615 0.00462532 13.0001 2.2432 13.0001 5.00463C13.0001 7.76605 10.7615 10.0046 8.00012 10.0046C5.2387 10.0046 3.00012 7.76605 3.00012 5.00463C3.00012 2.2432 5.2387 0.00462532 8.00012 0.00462532ZM8.00012 1.50463C6.06712 1.50463 4.50012 3.07163 4.50012 5.00463C4.50012 6.93762 6.06712 8.50463 8.00012 8.50463C9.93312 8.50463 11.5001 6.93762 11.5001 5.00463C11.5001 3.07163 9.93312 1.50463 8.00012 1.50463Z" fill="#262626"/>
</svg>
