<svg width="24" height="24" viewBox="0 0 24 24" fill="none" xmlns="http://www.w3.org/2000/svg">
<path d="M8 14C8.55229 14 9 13.5523 9 13C9 12.4477 8.55229 12 8 12C7.44772 12 7 12.4477 7 13C7 13.5523 7.44772 14 8 14Z" fill="#7C7C7C"/>
<path d="M9 16C9 16.5523 8.55229 17 8 17C7.44772 17 7 16.5523 7 16C7 15.4477 7.44772 15 8 15C8.55229 15 9 15.4477 9 16Z" fill="#7C7C7C"/>
<path d="M12 14C12.5523 14 13 13.5523 13 13C13 12.4477 12.5523 12 12 12C11.4477 12 11 12.4477 11 13C11 13.5523 11.4477 14 12 14Z" fill="#7C7C7C"/>
<path d="M13 16C13 16.5523 12.5523 17 12 17C11.4477 17 11 16.5523 11 16C11 15.4477 11.4477 15 12 15C12.5523 15 13 15.4477 13 16Z" fill="#7C7C7C"/>
<path d="M16 14C16.5523 14 17 13.5523 17 13C17 12.4477 16.5523 12 16 12C15.4477 12 15 12.4477 15 13C15 13.5523 15.4477 14 16 14Z" fill="#7C7C7C"/>
<path fill-rule="evenodd" clip-rule="evenodd" d="M8.5 3.75C8.5 3.33579 8.16421 3 7.75 3C7.33579 3 7 3.33579 7 3.75V4.5H6.25C4.45507 4.5 3 5.95507 3 7.75V17.75C3 19.5449 4.45507 21 6.25 21H17.75C19.5449 21 21 19.5449 21 17.75V7.75C21 5.95507 19.5449 4.5 17.75 4.5H17V3.75C17 3.33579 16.6642 3 16.25 3C15.8358 3 15.5 3.33579 15.5 3.75V4.5H8.5V3.75ZM15.5 6.75V6H8.5V6.75C8.5 7.16421 8.16421 7.5 7.75 7.5C7.33579 7.5 7 7.16421 7 6.75V6H6.25C5.2835 6 4.5 6.7835 4.5 7.75V8.5H19.5V7.75C19.5 6.7835 18.7165 6 17.75 6H17V6.75C17 7.16421 16.6642 7.5 16.25 7.5C15.8358 7.5 15.5 7.16421 15.5 6.75ZM4.5 10H19.5V17.75C19.5 18.7165 18.7165 19.5 17.75 19.5H6.25C5.2835 19.5 4.5 18.7165 4.5 17.75V10Z" fill="#7C7C7C"/>
</svg>
