<svg width="18" height="18" viewBox="0 0 18 18" fill="none" xmlns="http://www.w3.org/2000/svg"><path fill-rule="evenodd" clip-rule="evenodd" d="M17.3333 8.99996C17.3333 13.6023 13.6024 17.3333 8.99999 17.3333C4.39762 17.3333 0.666656 13.6023 0.666656 8.99996C0.666656 4.39759 4.39762 0.666626 8.99999 0.666626C13.6024 0.666626 17.3333 4.39759 17.3333 8.99996ZM5.42266 5.42255C5.74809 5.09711 6.27573 5.09711 6.60117 5.42255L8.95823 7.77961L11.3153 5.42258C11.6407 5.09714 12.1683 5.09714 12.4938 5.42258C12.8192 5.74801 12.8192 6.27565 12.4938 6.60109L10.1367 8.95813L12.4937 11.3151C12.8192 11.6405 12.8192 12.1682 12.4937 12.4936C12.1683 12.8191 11.6407 12.8191 11.3152 12.4936L8.95823 10.1366L6.60123 12.4936C6.27579 12.8191 5.74815 12.8191 5.42272 12.4936C5.09728 12.1682 5.09728 11.6406 5.42272 11.3151L7.77972 8.95813L5.42266 6.60106C5.09722 6.27562 5.09722 5.74799 5.42266 5.42255Z" fill="#262626" fill-opacity="0.18"/></svg>