<svg width="40" height="40" viewBox="0 0 40 40" fill="none" xmlns="http://www.w3.org/2000/svg">
<path fill-rule="evenodd" clip-rule="evenodd" d="M36.6666 19.9999C36.6666 29.2047 29.2047 36.6666 20 36.6666C10.7952 36.6666 3.33331 29.2047 3.33331 19.9999C3.33331 10.7952 10.7952 3.33325 20 3.33325C29.2047 3.33325 36.6666 10.7952 36.6666 19.9999ZM12.8453 12.8451C13.4962 12.1942 14.5515 12.1942 15.2023 12.8451L19.9165 17.5592L24.6305 12.8452C25.2814 12.1943 26.3367 12.1943 26.9876 12.8452C27.6384 13.496 27.6384 14.5513 26.9876 15.2022L22.2735 19.9163L26.9875 24.6302C27.6383 25.2811 27.6383 26.3364 26.9875 26.9872C26.3366 27.6381 25.2813 27.6381 24.6304 26.9872L19.9165 22.2733L15.2025 26.9873C14.5516 27.6382 13.4963 27.6382 12.8454 26.9873C12.1946 26.3364 12.1946 25.2811 12.8454 24.6303L17.5594 19.9163L12.8453 15.2021C12.1944 14.5512 12.1944 13.496 12.8453 12.8451Z" fill="#E15E69"/>
</svg>
