<svg width="18" height="12" viewBox="0 0 18 12" fill="none" xmlns="http://www.w3.org/2000/svg">
<path fill-rule="evenodd" clip-rule="evenodd" d="M17.2473 5.61068C17.362 5.85574 17.362 6.14419 17.2473 6.38924C13.8492 13.648 4.15077 13.648 0.752696 6.38924C0.637973 6.14418 0.63798 5.85573 0.752696 5.61068C4.15077 -1.64806 13.8492 -1.64806 17.2473 5.61068ZM15.7257 5.99996C12.8064 0.38163 5.19359 0.381632 2.27431 5.99996C5.19359 11.6183 12.8064 11.6183 15.7257 5.99996ZM8.99999 2.76079C10.6749 2.76079 12.0327 4.21101 12.0327 5.99996C12.0327 7.7889 10.6749 9.23913 8.99999 9.23913C7.32505 9.23913 5.96725 7.7889 5.96725 5.99996C5.96725 4.21101 7.32505 2.76079 8.99999 2.76079Z" fill="#262626" fill-opacity="0.5"/>
</svg>
