<svg width="18" height="18" viewBox="0 0 18 18" fill="none" xmlns="http://www.w3.org/2000/svg">
<path fill-rule="evenodd" clip-rule="evenodd" d="M0.72306 0.734077C0.446439 1.0107 0.446439 1.45919 0.723061 1.73581L3.82537 4.83811C2.58108 5.73483 1.51032 6.99236 0.752721 8.61068C0.638005 8.85574 0.637998 9.14418 0.752721 9.38924C3.1467 14.5031 8.66776 16.0142 12.9098 13.9225L16.2205 17.2332C16.4971 17.5099 16.9456 17.5099 17.2222 17.2332C17.4988 16.9566 17.4988 16.5081 17.2222 16.2315L1.72479 0.734077C1.44817 0.457456 0.999682 0.457456 0.72306 0.734077ZM11.6931 12.7059L10.6826 11.6953C10.2011 12.0388 9.62247 12.2391 9.00001 12.2391C7.32508 12.2391 5.96727 10.7889 5.96727 8.99996C5.96727 8.41141 6.11424 7.85951 6.37112 7.38386L4.96935 5.98209C3.89462 6.68137 2.95638 7.68733 2.27433 8.99997C4.2407 12.7844 8.33655 14.0197 11.6931 12.7059ZM8.08132 5.91208L11.9452 9.77594C12.0024 9.52733 12.0328 9.26743 12.0328 8.99996C12.0328 7.21102 10.675 5.76079 9.00001 5.76079C8.67976 5.76079 8.37111 5.81381 8.08132 5.91208ZM15.7257 8.99997C15.189 10.0328 14.4937 10.8758 13.6981 11.5289L14.8197 12.6505C15.789 11.8076 16.6241 10.7205 17.2473 9.38924C17.362 9.14419 17.362 8.85575 17.2473 8.61069C15.0026 3.81564 10.0085 2.18815 5.89746 3.72822L7.18223 5.01298C10.3483 4.21013 13.9274 5.53913 15.7257 8.99997Z" fill="#262626" fill-opacity="0.5"/>
</svg>
