<svg width="40" height="40" viewBox="0 0 40 40" fill="none" xmlns="http://www.w3.org/2000/svg">
<path d="M20 3.33154C29.2062 3.33154 36.6693 10.7946 36.6693 20.0008C36.6693 29.207 29.2062 36.67 20 36.67C10.7938 36.67 3.33075 29.207 3.33075 20.0008C3.33075 10.7946 10.7938 3.33154 20 3.33154ZM19.9937 17.0825C19.1389 17.0831 18.4349 17.7269 18.3392 18.5559L18.3281 18.7503L18.3341 27.9196L18.3454 28.114C18.4422 28.9428 19.1471 29.5857 20.0018 29.5852C20.8566 29.5846 21.5606 28.9408 21.6563 28.1118L21.6674 27.9174L21.6614 18.7481L21.6501 18.5537C21.5533 17.7249 20.8484 17.082 19.9937 17.0825ZM20.0007 10.8333C18.8488 10.8333 17.9149 11.7671 17.9149 12.9191C17.9149 14.0711 18.8488 15.005 20.0007 15.005C21.1527 15.005 22.0866 14.0711 22.0866 12.9191C22.0866 11.7671 21.1527 10.8333 20.0007 10.8333Z" fill="#1F90FF"/>
</svg>
