<svg width="16" height="16" viewBox="0 0 16 16" fill="none" xmlns="http://www.w3.org/2000/svg">
<path d="M8 0.5C12.1423 0.5 15.5 3.8585 15.5 8C15.5 12.1415 12.1423 15.5 8 15.5C3.85775 15.5 0.5 12.1415 0.5 8C0.5 3.8585 3.85775 0.5 8 0.5ZM8 1.75025C4.55375 1.75025 1.75025 4.55375 1.75025 8C1.75025 11.4462 4.55375 14.2498 8 14.2498C11.4462 14.2498 14.2498 11.4462 14.2498 8C14.2498 4.55375 11.4462 1.75025 8 1.75025ZM8 10.625C8.41421 10.625 8.75 10.9608 8.75 11.375C8.75 11.7892 8.41421 12.125 8 12.125C7.58579 12.125 7.25 11.7892 7.25 11.375C7.25 10.9608 7.58579 10.625 8 10.625ZM8 4.0625C9.13909 4.0625 10.0625 4.98591 10.0625 6.125C10.0625 6.88306 9.83934 7.30553 9.27414 7.89394L9.14775 8.02275C8.68132 8.48917 8.5625 8.68721 8.5625 9.125C8.5625 9.43566 8.31066 9.6875 8 9.6875C7.68934 9.6875 7.4375 9.43566 7.4375 9.125C7.4375 8.36694 7.66066 7.94447 8.22586 7.35606L8.35225 7.22725C8.81868 6.76083 8.9375 6.56279 8.9375 6.125C8.9375 5.60723 8.51777 5.1875 8 5.1875C7.51459 5.1875 7.11535 5.55641 7.06734 6.02915L7.0625 6.125C7.0625 6.43566 6.81066 6.6875 6.5 6.6875C6.18934 6.6875 5.9375 6.43566 5.9375 6.125C5.9375 4.98591 6.86091 4.0625 8 4.0625Z" fill="#7C7C7C"/>
</svg>
