<svg width="40" height="40" viewBox="0 0 40 40" fill="none" xmlns="http://www.w3.org/2000/svg">
<path d="M20 3.33325C29.2047 3.33325 36.6666 10.7952 36.6666 19.9999C36.6666 29.2047 29.2047 36.6666 20 36.6666C10.7952 36.6666 3.33331 29.2047 3.33331 19.9999C3.33331 10.7952 10.7952 3.33325 20 3.33325ZM25.3661 14.9494L17.9166 22.3988L14.6339 19.116C14.1457 18.6279 13.3543 18.6279 12.8661 19.116C12.3779 19.6042 12.3779 20.3956 12.8661 20.8838L17.0328 25.0505C17.5209 25.5386 18.3124 25.5386 18.8005 25.0505L27.1339 16.7171C27.622 16.229 27.622 15.4375 27.1339 14.9494C26.6457 14.4612 25.8543 14.4612 25.3661 14.9494Z" fill="#37B150"/>
</svg>
