<svg width="32" height="32" viewBox="0 0 32 32" fill="none" xmlns="http://www.w3.org/2000/svg">
<path d="M14.5446 3.70956C15.931 2.94168 17.6617 3.38787 18.5122 4.69655L18.6225 4.88032L28.9678 23.558C29.2142 24.0029 29.3435 24.503 29.3435 25.0116C29.3435 26.5994 28.1099 27.8991 26.5489 28.0047L26.3435 28.0116H5.65582C5.14741 28.0116 4.64734 27.8824 4.20256 27.6361C2.8161 26.8684 2.27605 25.1646 2.93412 23.7494L3.03132 23.5583L13.3737 4.88063C13.6464 4.38814 14.0522 3.98232 14.5446 3.70956ZM16.0006 21.3357C15.2652 21.3357 14.669 21.9319 14.669 22.6673C14.669 23.4027 15.2652 23.9988 16.0006 23.9988C16.736 23.9988 17.3321 23.4027 17.3321 22.6673C17.3321 21.9319 16.736 21.3357 16.0006 21.3357ZM15.9977 10.6641C15.3139 10.6643 14.7505 11.1793 14.6738 11.8424L14.6648 11.9979L14.6672 18.6657L14.6763 18.8212C14.7535 19.4843 15.3173 19.9988 16.0011 19.9986C16.6848 19.9984 17.2482 19.4834 17.325 18.8203L17.3339 18.6648L17.3315 11.9969L17.3225 11.8415C17.2452 11.1784 16.6815 10.6638 15.9977 10.6641Z" fill="#F7AE47"/>
</svg>
