<svg width="24" height="24" viewBox="0 0 14 14" fill="none" xmlns="http://www.w3.org/2000/svg">
<path d="M7.00016 0.333313C10.6822 0.333313 13.6668 3.31865 13.6668 6.99998C13.6668 10.6813 10.6822 13.6666 7.00016 13.6666C3.31816 13.6666 0.333496 10.6813 0.333496 6.99998C0.333496 3.31865 3.31816 0.333313 7.00016 0.333313ZM7.00136 9.00246C6.63367 9.00246 6.33559 9.30054 6.33559 9.66824C6.33559 10.0359 6.63367 10.334 7.00136 10.334C7.36906 10.334 7.66714 10.0359 7.66714 9.66824C7.66714 9.30054 7.36906 9.00246 7.00136 9.00246ZM6.99992 3.66665C6.65803 3.66677 6.37634 3.92423 6.33795 4.2558L6.3335 4.33355L6.3347 7.66747L6.33921 7.74522C6.37784 8.07676 6.65971 8.33402 7.0016 8.3339C7.34349 8.33378 7.62518 8.07631 7.66357 7.74474L7.66803 7.66699L7.66683 4.33307L7.66232 4.25533C7.62369 3.92378 7.34181 3.66652 6.99992 3.66665Z" fill="black"></path>
</svg>